<?xml version="1.0" encoding="UTF-8" standalone="no"?>
<svg width="21px" height="17px" viewBox="0 0 21 17" version="1.1" xmlns="http://www.w3.org/2000/svg" xmlns:xlink="http://www.w3.org/1999/xlink" xmlns:sketch="http://www.bohemiancoding.com/sketch/ns">
    <!-- Generator: Sketch 3.3.3 (12072) - http://www.bohemiancoding.com/sketch -->
    <title>r-arrow</title>
    <desc>Created with Sketch.</desc>
    <defs></defs>
    <g id="Page-1" stroke="none" stroke-width="1" fill="none" fill-rule="evenodd" sketch:type="MSPage">
        <g id="r-arrow" sketch:type="MSLayerGroup" fill="#9E7E20">
            <g id="Group" sketch:type="MSShapeGroup">
                <g id="Shape">
                    <path d="M14.238,1.25 L20.098,7.402 C20.448,7.754 20.625,8.202 20.625,8.75 C20.625,9.258 20.449,9.687 20.098,10.04 L14.238,16.25 C13.888,16.602 13.468,16.777 12.978,16.777 C12.49,16.777 12.07,16.602 11.718,16.25 C11.368,15.898 11.191,15.45 11.191,14.902 C11.191,14.355 11.368,13.906 11.721,13.555 L14.531,10.625 L1.817,10.625 C1.31,10.625 0.88,10.439 0.527,10.068 C0.177,9.698 0,9.258 0,8.75 C0,8.242 0.176,7.803 0.527,7.432 C0.879,7.062 1.309,6.875 1.817,6.875 L14.53,6.875 L11.66,3.945 C11.31,3.595 11.133,3.145 11.133,2.598 C11.133,2.051 11.309,1.602 11.66,1.25 C12.012,0.898 12.44,0.723 12.95,0.723 C13.457,0.723 13.887,0.898 14.238,1.25 L14.238,1.25 Z"></path>
                </g>
            </g>
        </g>
    </g>
</svg>